# This file uses meters as units for non-parametric coordinates.

mtllib front_plane_side.mtl
g default
v 0.712096 0.139123 -8.063909
v 0.446498 0.139123 -7.231535
v 0.293823 0.139123 -6.328863
v 0.141148 0.139123 -5.426190
v 0.049935 0.139123 -4.522133
v -0.041277 0.139123 -3.618075
v -0.093180 0.139123 -2.713913
v -0.145083 0.139123 -1.809751
v 0.977693 0.139123 8.897059
v 0.712096 0.139123 8.064623
v 0.446498 0.139123 7.232185
v 0.293823 0.139123 6.329443
v 0.141148 0.139123 5.426701
v 0.049935 0.139123 4.522573
v -0.041277 0.139123 3.618446
v -0.093180 0.139123 2.714214
v 0.977693 0.139123 -8.896281
v -0.145083 0.139123 1.809982
v -0.145083 0.848366 0.705354
v -0.145083 1.003916 0.000115
v -0.145083 0.839238 -0.803230
v -0.145083 0.447923 -1.262586
v -0.144257 0.567355 1.657458
v -0.144257 0.379716 1.826370
v -0.144257 0.932693 1.065720
v -0.144257 0.891934 0.835765
v -0.144257 1.169455 0.428189
v -0.144257 1.140520 0.137225
v -0.144257 1.185205 -0.573815
v -0.144257 1.011702 -0.769674
v -0.144257 0.808340 -1.252150
v -0.144257 0.603171 -1.311307
v -0.144257 0.443794 -1.655198
v -0.144257 0.296131 -1.776460
v -0.144257 0.486058 -1.417829
v -0.144257 0.862136 -0.963035
v -0.144257 1.170542 -0.227777
v -0.144257 0.982859 0.646189
v -0.145083 0.566325 1.248357
v -0.144257 0.761912 1.206693
v -0.144257 0.607848 1.376842
v 0.489413 0.139123 -8.063909
v 0.223816 0.139123 -7.231535
v 0.071140 0.139123 -6.328863
v -0.081535 0.139123 -5.426190
v -0.172747 0.139123 -4.522133
v -0.263960 0.139123 -3.618075
v -0.315863 0.139123 -2.713913
v -0.367766 0.139123 -1.809751
v 0.489413 0.139123 8.064623
v 0.755011 0.139123 8.897059
v 0.071140 0.139123 6.329443
v 0.223816 0.139123 7.232185
v -0.172747 0.139123 4.522573
v -0.081535 0.139123 5.426701
v -0.315863 0.139123 2.714214
v -0.263960 0.139123 3.618446
v 0.755011 0.139123 -8.896281
v -0.367766 0.139123 1.809982
v -0.366940 0.379716 1.826370
v -0.366940 0.567355 1.657458
v -0.366940 0.891934 0.835765
v -0.366940 0.932693 1.065720
v -0.367766 0.848366 0.705354
v -0.366940 1.140520 0.137225
v -0.366940 1.169455 0.428189
v -0.367766 1.003916 0.000115
v -0.366940 1.011702 -0.769674
v -0.366940 1.185205 -0.573815
v -0.367766 0.839238 -0.803230
v -0.366940 0.603171 -1.311307
v -0.366940 0.808340 -1.252150
v -0.367766 0.447923 -1.262586
v -0.366940 0.296131 -1.776460
v -0.366940 0.443794 -1.655198
v -0.366940 0.486058 -1.417829
v -0.366940 0.862136 -0.963035
v -0.366940 1.170542 -0.227777
v -0.366940 0.982859 0.646189
v -0.366940 0.761912 1.206693
v -0.367766 0.566325 1.248357
v -0.366940 0.607848 1.376842
vt 0.092179 0.076347
vt 0.092924 0.088791
vt 0.046971 0.107264
vt 0.046253 0.094797
vt 0.192480 0.051516
vt 0.193286 0.063930
vt 0.143136 0.076353
vt 0.142360 0.063924
vt 0.293169 0.033568
vt 0.294036 0.045959
vt 0.243683 0.054940
vt 0.242847 0.042538
vt 0.394020 0.020015
vt 0.394947 0.032390
vt 0.344509 0.039172
vt 0.343611 0.026789
vt 0.998458 0.036331
vt 0.999756 0.048725
vt 0.951682 0.037530
vt 0.950414 0.025149
vt 0.902423 0.013979
vt 0.903661 0.026347
vt 0.852377 0.021749
vt 0.851171 0.009387
vt 0.799942 0.004797
vt 0.801117 0.017153
vt 0.750118 0.015976
vt 0.748974 0.003622
vt 0.698013 0.002447
vt 0.699125 0.014800
vt 0.648324 0.015807
vt 0.647242 0.003452
vt 0.000934 0.125770
vt 0.000244 0.113281
vt 0.597517 0.016813
vt 0.596466 0.004457
vt 0.599963 0.014680
vt 0.598900 0.002193
vt 0.591549 0.013745
vt 0.590482 0.001152
vt 0.558447 0.000244
vt 0.559512 0.013048
vt 0.546014 0.014444
vt 0.544960 0.001662
vt 0.538300 0.015370
vt 0.537253 0.002613
vt 0.522222 0.000782
vt 0.523275 0.013729
vt 0.506151 0.015305
vt 0.505110 0.002374
vt 0.497857 0.017111
vt 0.496828 0.004260
vt 0.463513 0.005141
vt 0.464530 0.018102
vt 0.453061 0.020534
vt 0.452059 0.007673
vt 0.451145 0.022150
vt 0.450152 0.009389
vt 0.424281 0.011711
vt 0.425256 0.024457
vt 0.422162 0.026463
vt 0.421198 0.013834
vt 0.425162 0.027501
vt 0.424203 0.014960
vt 0.401941 0.016754
vt 0.402886 0.029296
vt 0.396399 0.031029
vt 0.395464 0.018569
vt 0.416284 0.027909
vt 0.415329 0.015346
vt 0.441901 0.022708
vt 0.440913 0.009933
vt 0.484818 0.016675
vt 0.483789 0.003724
vt 0.535372 0.014462
vt 0.534320 0.001626
vt 0.567166 0.002906
vt 0.568219 0.015500
vt 0.566820 0.013977
vt 0.565759 0.001272
vt 0.575770 0.014613
vt 0.574711 0.001996
vn 0.000000 1.000000 0.000000
vn 0.000000 1.000000 0.000000
vn 0.000000 1.000000 0.000000
vn 0.000000 1.000000 0.000000
vn 0.000000 1.000000 -0.000000
vn 0.000000 1.000000 -0.000000
vn 0.000000 1.000000 -0.000000
vn 0.000000 1.000000 -0.000000
vn 0.000000 1.000000 -0.000000
vn 0.000000 1.000000 -0.000000
vn 0.000000 1.000000 -0.000000
vn 0.000000 1.000000 -0.000000
vn 0.000000 1.000000 0.000000
vn 0.000000 1.000000 0.000000
vn 0.000000 1.000000 0.000000
vn 0.000000 1.000000 0.000000
vn 0.000000 1.000000 0.000000
vn 0.000000 1.000000 0.000000
vn 0.000000 1.000000 0.000000
vn 0.000000 1.000000 0.000000
vn 0.000000 1.000000 -0.000000
vn 0.000000 1.000000 -0.000000
vn 0.000000 1.000000 -0.000000
vn 0.000000 1.000000 -0.000000
vn 0.000000 1.000000 0.000000
vn 0.000000 1.000000 0.000000
vn 0.000000 1.000000 0.000000
vn 0.000000 1.000000 0.000000
vn 0.000000 1.000000 -0.000000
vn 0.000000 1.000000 -0.000000
vn 0.000000 1.000000 -0.000000
vn 0.000000 1.000000 -0.000000
vn 0.000000 1.000000 0.000000
vn 0.000000 1.000000 0.000000
vn 0.000000 1.000000 0.000000
vn 0.000000 1.000000 0.000000
vn 0.000000 1.000000 0.000000
vn 0.000000 1.000000 0.000000
vn 0.000000 1.000000 0.000000
vn 0.000000 1.000000 0.000000
vn 0.000000 1.000000 -0.000000
vn 0.000000 1.000000 -0.000000
vn 0.000000 1.000000 -0.000000
vn 0.000000 1.000000 -0.000000
vn 0.000000 1.000000 0.000000
vn 0.000000 1.000000 0.000000
vn 0.000000 1.000000 0.000000
vn 0.000000 1.000000 0.000000
vn 0.000000 1.000000 -0.000000
vn 0.000000 1.000000 -0.000000
vn 0.000000 1.000000 -0.000000
vn 0.000000 1.000000 -0.000000
vn 0.000000 1.000000 0.000000
vn 0.000000 1.000000 0.000000
vn 0.000000 1.000000 0.000000
vn 0.000000 1.000000 0.000000
vn 0.000000 1.000000 0.000000
vn 0.000000 1.000000 0.000000
vn 0.000000 1.000000 0.000000
vn 0.000000 1.000000 0.000000
vn 0.000000 1.000000 0.000000
vn 0.000000 1.000000 0.000000
vn 0.000000 1.000000 0.000000
vn 0.000000 1.000000 0.000000
vn 0.000000 -0.067955 0.997688
vn 0.000000 -0.067955 0.997688
vn 0.000000 -0.067955 0.997688
vn 0.000000 -0.067955 0.997688
vn 0.000000 0.669044 0.743223
vn 0.000000 0.669044 0.743223
vn 0.000000 0.669044 0.743223
vn 0.000000 0.669044 0.743223
vn 0.000000 0.984652 -0.174531
vn 0.000000 0.984652 -0.174531
vn 0.000000 0.984652 -0.174531
vn 0.000000 0.984652 -0.174531
vn 0.000000 0.948472 -0.316861
vn 0.000000 0.948472 -0.316861
vn 0.000000 0.948472 -0.316861
vn 0.000000 0.948472 -0.316861
vn 0.000000 0.995092 -0.098956
vn 0.000000 0.995092 -0.098956
vn 0.000000 0.995092 -0.098956
vn 0.000000 0.995092 -0.098956
vn 0.000000 0.708411 -0.705800
vn 0.000000 0.708411 -0.705800
vn 0.000000 0.708411 -0.705800
vn 0.000000 0.708411 -0.705800
vn 0.000000 0.748535 -0.663095
vn 0.000000 0.748535 -0.663095
vn 0.000000 0.748535 -0.663095
vn 0.000000 0.748535 -0.663095
vn 0.000000 0.190985 -0.981593
vn 0.000000 0.190985 -0.981593
vn 0.000000 0.190985 -0.981593
vn 0.000000 0.190985 -0.981593
vn 0.000000 0.277047 -0.960856
vn 0.000000 0.277047 -0.960856
vn 0.000000 0.277047 -0.960856
vn 0.000000 0.277047 -0.960856
vn 0.000000 -0.299428 -0.954119
vn 0.000000 -0.299428 -0.954119
vn 0.000000 -0.299428 -0.954119
vn 0.000000 -0.299428 -0.954119
vn 0.000000 0.634635 -0.772812
vn 0.000000 0.634635 -0.772812
vn 0.000000 0.634635 -0.772812
vn 0.000000 0.634635 -0.772812
vn 0.000000 0.207427 -0.978251
vn 0.000000 0.207427 -0.978251
vn 0.000000 0.207427 -0.978251
vn 0.000000 0.207427 -0.978251
vn 0.000000 0.971129 0.238553
vn 0.000000 0.971129 0.238553
vn 0.000000 0.971129 0.238553
vn 0.000000 0.971129 0.238553
vn 0.000000 0.984517 -0.175291
vn 0.000000 0.984517 -0.175291
vn 0.000000 0.984517 -0.175291
vn 0.000000 0.984517 -0.175291
vn 0.000000 0.989890 0.141838
vn 0.000000 0.989890 0.141838
vn 0.000000 0.989890 0.141838
vn 0.000000 0.989890 0.141838
vn 0.000000 0.983126 -0.182930
vn 0.000000 0.983126 -0.182930
vn 0.000000 0.983126 -0.182930
vn 0.000000 0.983126 -0.182930
vn 0.000000 0.807240 0.590224
vn 0.000000 0.807239 0.590224
vn 0.000000 0.807240 0.590224
vn 0.000000 0.807239 0.590224
vn 0.000000 0.999103 0.042336
vn 0.000000 0.999103 0.042336
vn 0.000000 0.999103 0.042336
vn 0.000000 0.999103 0.042336
vn 0.000000 0.402668 0.915346
vn 0.000000 0.402668 0.915346
vn 0.000000 0.402668 0.915346
vn 0.000000 0.402668 0.915346
vn 0.000000 0.759706 0.650266
vn 0.000000 0.759706 0.650266
vn 0.000000 0.759706 0.650266
vn 0.000000 0.759706 0.650266
vn 0.000000 0.208344 0.978056
vn 0.000000 0.208344 0.978056
vn 0.000000 0.208344 0.978056
vn 0.000000 0.208344 0.978056
vn 0.000000 0.636595 0.771199
vn 0.000000 0.636595 0.771199
vn 0.000000 0.636595 0.771199
vn 0.000000 0.636595 0.771199
vn 0.000000 0.989749 0.142819
vn 0.000000 0.989749 0.142819
vn 0.000000 0.989749 0.142819
vn 0.000000 0.989749 0.142819
vn 0.000000 0.951543 -0.307515
vn 0.000000 0.951543 -0.307515
vn 0.000000 0.951543 -0.307515
vn 0.000000 0.951543 -0.307515
g polySurface2 pasted__pPlane10
usemtl initialShadingGroup
f 43/1/1 2/2/2 1/3/3 42/4/4
f 45/5/5 4/6/6 3/7/7 44/8/8
f 47/9/9 6/10/10 5/11/11 46/12/12
f 49/13/13 8/14/14 7/15/15 48/16/16
f 51/17/17 9/18/18 10/19/19 50/20/20
f 53/21/21 11/22/22 12/23/23 52/24/24
f 55/25/25 13/26/26 14/27/27 54/28/28
f 57/29/29 15/30/30 16/31/31 56/32/32
f 42/4/33 1/3/34 17/33/35 58/34/36
f 44/8/37 3/7/38 2/2/39 43/1/40
f 46/12/41 5/11/42 4/6/43 45/5/44
f 48/16/45 7/15/46 6/10/47 47/9/48
f 56/32/49 16/31/50 18/35/51 59/36/52
f 54/28/53 14/27/54 15/30/55 57/29/56
f 52/24/57 12/23/58 13/26/59 55/25/60
f 50/20/61 10/19/62 11/22/63 53/21/64
f 59/36/65 18/35/66 24/37/67 60/38/68
f 60/38/69 24/37/70 23/39/71 61/40/72
f 63/41/73 25/42/74 26/43/75 62/44/76
f 62/44/77 26/43/78 19/45/79 64/46/80
f 66/47/81 27/48/82 28/49/83 65/50/84
f 65/50/85 28/49/86 20/51/87 67/52/88
f 69/53/89 29/54/90 30/55/91 68/56/92
f 68/56/93 30/55/94 21/57/95 70/58/96
f 72/59/97 31/60/98 32/61/99 71/62/100
f 71/62/101 32/61/102 22/63/103 73/64/104
f 75/65/105 33/66/106 34/67/107 74/68/108
f 74/68/109 34/67/110 8/14/111 49/13/112
f 73/64/113 22/63/114 35/69/115 76/70/116
f 76/70/117 35/69/118 33/66/119 75/65/120
f 70/58/121 21/57/122 36/71/123 77/72/124
f 77/72/125 36/71/126 31/60/127 72/59/128
f 67/52/129 20/51/130 37/73/131 78/74/132
f 78/74/133 37/73/134 29/54/135 69/53/136
f 64/46/137 19/45/138 38/75/139 79/76/140
f 79/76/141 38/75/142 27/48/143 66/47/144
f 81/77/145 39/78/146 40/79/147 80/80/148
f 80/80/149 40/79/150 25/42/151 63/41/152
f 61/40/153 23/39/154 41/81/155 82/82/156
f 82/82/157 41/81/158 39/78/159 81/77/160
