# This file uses meters as units for non-parametric coordinates.

mtllib middle_panel_face.mtl
g default
v 2.264148 -0.030568 8.725510
v 2.264148 6.214314 8.725510
v 2.264148 8.294680 7.909596
v 2.264148 9.248863 5.817007
v 2.264148 9.658443 2.908503
v 2.264148 9.658443 0.000000
v 2.264148 9.658443 -2.908503
v 2.264148 9.248863 -5.817007
v 2.264148 8.294680 -7.909596
v 2.264148 -0.030568 -8.725510
v 2.264148 6.214314 -8.725510
v 2.264148 -0.030568 16.401354
v 2.264148 -0.030568 -16.401354
v 2.264148 7.446227 16.401354
v 2.264148 11.356695 14.867684
v 2.264148 13.150274 10.934240
v 2.264148 13.920166 5.467120
v 2.264148 13.920166 0.000000
v 2.264148 13.920166 -5.467120
v 2.264148 13.150274 -10.934240
v 2.264148 11.356695 -14.867684
v 2.264148 7.446227 -16.401354
vt 0.227820 0.235060
vt 0.038201 0.235060
vt 0.038201 0.001992
vt 0.265225 0.001992
vt 0.290988 0.259834
vt 0.383962 0.048560
vt 0.319960 0.323373
vt 0.438422 0.167995
vt 0.332397 0.411687
vt 0.461799 0.333997
vt 0.332397 0.500000
vt 0.461799 0.500000
vt 0.332397 0.588313
vt 0.461799 0.666003
vt 0.319960 0.676627
vt 0.438422 0.832006
vt 0.290988 0.740166
vt 0.383962 0.951440
vt 0.038201 0.764940
vt 0.227820 0.764940
vt 0.265225 0.998008
vt 0.038201 0.998008
vn -1.000000 0.000000 0.000000
vn -1.000000 0.000000 0.000000
vn -1.000000 0.000000 0.000000
vn -1.000000 0.000000 0.000000
vn -1.000000 0.000000 0.000000
vn -1.000000 0.000000 0.000000
vn -1.000000 0.000000 0.000000
vn -1.000000 0.000000 0.000000
vn -1.000000 0.000000 0.000000
vn -1.000000 0.000000 0.000000
vn -1.000000 0.000000 0.000000
vn -1.000000 0.000000 0.000000
vn -1.000000 0.000000 0.000000
vn -1.000000 0.000000 0.000000
vn -1.000000 0.000000 0.000000
vn -1.000000 0.000000 0.000000
vn -1.000000 0.000000 0.000000
vn -1.000000 0.000000 0.000000
vn -1.000000 0.000000 0.000000
vn -1.000000 0.000000 0.000000
vn -1.000000 0.000000 0.000000
vn -1.000000 0.000000 0.000000
vn -1.000000 0.000000 0.000000
vn -1.000000 0.000000 0.000000
vn -1.000000 0.000000 0.000000
vn -1.000000 0.000000 0.000000
vn -1.000000 0.000000 0.000000
vn -1.000000 0.000000 0.000000
vn -1.000000 0.000000 0.000000
vn -1.000000 0.000000 0.000000
vn -1.000000 0.000000 0.000000
vn -1.000000 0.000000 0.000000
vn -1.000000 0.000000 0.000000
vn -1.000000 0.000000 0.000000
vn -1.000000 0.000000 0.000000
vn -1.000000 0.000000 0.000000
vn -1.000000 -0.000000 0.000000
vn -1.000000 -0.000000 0.000000
vn -1.000000 -0.000000 0.000000
vn -1.000000 -0.000000 0.000000
g polySurface9 polySurface8
usemtl face_mat
f 2/1/1 1/2/2 12/3/3 14/4/4
f 3/5/5 2/1/6 14/4/7 15/6/8
f 4/7/9 3/5/10 15/6/11 16/8/12
f 5/9/13 4/7/14 16/8/15 17/10/16
f 6/11/17 5/9/18 17/10/19 18/12/20
f 7/13/21 6/11/22 18/12/23 19/14/24
f 8/15/25 7/13/26 19/14/27 20/16/28
f 9/17/29 8/15/30 20/16/31 21/18/32
f 10/19/33 11/20/34 22/21/35 13/22/36
f 11/20/37 9/17/38 21/18/39 22/21/40
